TITLE ""
FILE "LR_black_phrase_B05.mp3" MP3
  TRACK 01 AUDIO
    TITLE "LR_black_phrase_B05_001"
    INDEX 01 00:00:00
  TRACK 02 AUDIO
    TITLE "LR_black_phrase_B05_002"
    INDEX 01 00:00:14
  TRACK 03 AUDIO
    TITLE "LR_black_phrase_B05_003"
    INDEX 01 00:01:41
  TRACK 04 AUDIO
    TITLE "LR_black_phrase_B05_004"
    INDEX 01 00:02:07
  TRACK 05 AUDIO
    TITLE "LR_black_phrase_B05_005"
    INDEX 01 00:04:53
  TRACK 06 AUDIO
    TITLE "LR_black_phrase_B05_006"
    INDEX 01 00:05:51
  TRACK 07 AUDIO
    TITLE "LR_black_phrase_B05_007"
    INDEX 01 00:08:39
  TRACK 08 AUDIO
    TITLE "LR_black_phrase_B05_008"
    INDEX 01 00:09:05
  TRACK 09 AUDIO
    TITLE "LR_black_phrase_B05_009"
    INDEX 01 00:12:00
  TRACK 10 AUDIO
    TITLE "LR_black_phrase_B05_010"
    INDEX 01 00:12:29
  TRACK 11 AUDIO
    TITLE "LR_black_phrase_B05_011"
    INDEX 01 00:15:26
  TRACK 12 AUDIO
    TITLE "LR_black_phrase_B05_012"
    INDEX 01 00:16:29
  TRACK 13 AUDIO
    TITLE "LR_black_phrase_B05_013"
    INDEX 01 00:17:56
  TRACK 14 AUDIO
    TITLE "LR_black_phrase_B05_014"
    INDEX 01 00:18:20
  TRACK 15 AUDIO
    TITLE "LR_black_phrase_B05_015"
    INDEX 01 00:20:29
  TRACK 16 AUDIO
    TITLE "LR_black_phrase_B05_016"
    INDEX 01 00:21:26
  TRACK 17 AUDIO
    TITLE "LR_black_phrase_B05_017"
    INDEX 01 00:23:58
  TRACK 18 AUDIO
    TITLE "LR_black_phrase_B05_018"
    INDEX 01 00:24:23
  TRACK 19 AUDIO
    TITLE "LR_black_phrase_B05_019"
    INDEX 01 00:27:07
  TRACK 20 AUDIO
    TITLE "LR_black_phrase_B05_020"
    INDEX 01 00:27:37
  TRACK 21 AUDIO
    TITLE "LR_black_phrase_B05_021"
    INDEX 01 00:30:21
  TRACK 22 AUDIO
    TITLE "LR_black_phrase_B05_022"
    INDEX 01 00:31:27
  TRACK 23 AUDIO
    TITLE "LR_black_phrase_B05_023"
    INDEX 01 00:33:08
  TRACK 24 AUDIO
    TITLE "LR_black_phrase_B05_024"
    INDEX 01 00:33:47
  TRACK 25 AUDIO
    TITLE "LR_black_phrase_B05_025"
    INDEX 01 00:35:36
  TRACK 26 AUDIO
    TITLE "LR_black_phrase_B05_026"
    INDEX 01 00:36:36
  TRACK 27 AUDIO
    TITLE "LR_black_phrase_B05_027"
    INDEX 01 00:38:01
  TRACK 28 AUDIO
    TITLE "LR_black_phrase_B05_028"
    INDEX 01 00:38:40
  TRACK 29 AUDIO
    TITLE "LR_black_phrase_B05_029"
    INDEX 01 00:40:39
  TRACK 30 AUDIO
    TITLE "LR_black_phrase_B05_030"
    INDEX 01 00:40:67
  TRACK 31 AUDIO
    TITLE "LR_black_phrase_B05_031"
    INDEX 01 00:42:66
  TRACK 32 AUDIO
    TITLE "LR_black_phrase_B05_032"
    INDEX 01 00:43:65
  TRACK 33 AUDIO
    TITLE "LR_black_phrase_B05_033"
    INDEX 01 00:45:13
  TRACK 34 AUDIO
    TITLE "LR_black_phrase_B05_034"
    INDEX 01 00:45:48
  TRACK 35 AUDIO
    TITLE "LR_black_phrase_B05_035"
    INDEX 01 00:48:29
  TRACK 36 AUDIO
    TITLE "LR_black_phrase_B05_036"
    INDEX 01 00:49:28
  TRACK 37 AUDIO
    TITLE "LR_black_phrase_B05_037"
    INDEX 01 00:52:31
  TRACK 38 AUDIO
    TITLE "LR_black_phrase_B05_038"
    INDEX 01 00:52:66
  TRACK 39 AUDIO
    TITLE "LR_black_phrase_B05_039"
    INDEX 01 00:55:35
  TRACK 40 AUDIO
    TITLE "LR_black_phrase_B05_040"
    INDEX 01 00:55:54
  TRACK 41 AUDIO
    TITLE "LR_black_phrase_B05_041"
    INDEX 01 00:58:23
  TRACK 42 AUDIO
    TITLE "LR_black_phrase_B05_042"
    INDEX 01 00:59:19
  TRACK 43 AUDIO
    TITLE "LR_black_phrase_B05_043"
    INDEX 01 01:00:54
  TRACK 44 AUDIO
    TITLE "LR_black_phrase_B05_044"
    INDEX 01 01:01:18
  TRACK 45 AUDIO
    TITLE "LR_black_phrase_B05_045"
    INDEX 01 01:04:10
  TRACK 46 AUDIO
    TITLE "LR_black_phrase_B05_046"
    INDEX 01 01:05:12
  TRACK 47 AUDIO
    TITLE "LR_black_phrase_B05_047"
    INDEX 01 01:07:24
  TRACK 48 AUDIO
    TITLE "LR_black_phrase_B05_048"
    INDEX 01 01:07:65
  TRACK 49 AUDIO
    TITLE "LR_black_phrase_B05_049"
    INDEX 01 01:10:19
  TRACK 50 AUDIO
    TITLE "LR_black_phrase_B05_050"
    INDEX 01 01:10:44
  TRACK 51 AUDIO
    TITLE "LR_black_phrase_B05_051"
    INDEX 01 01:12:72
  TRACK 52 AUDIO
    TITLE "LR_black_phrase_B05_052"
    INDEX 01 01:13:70
  TRACK 53 AUDIO
    TITLE "LR_black_phrase_B05_053"
    INDEX 01 01:14:67
  TRACK 54 AUDIO
    TITLE "LR_black_phrase_B05_054"
    INDEX 01 01:15:39
  TRACK 55 AUDIO
    TITLE "LR_black_phrase_B05_055"
    INDEX 01 01:18:03
  TRACK 56 AUDIO
    TITLE "LR_black_phrase_B05_056"
    INDEX 01 01:19:02
  TRACK 57 AUDIO
    TITLE "LR_black_phrase_B05_057"
    INDEX 01 01:21:01
  TRACK 58 AUDIO
    TITLE "LR_black_phrase_B05_058"
    INDEX 01 01:21:34
  TRACK 59 AUDIO
    TITLE "LR_black_phrase_B05_059"
    INDEX 01 01:24:09
  TRACK 60 AUDIO
    TITLE "LR_black_phrase_B05_060"
    INDEX 01 01:24:33
  TRACK 61 AUDIO
    TITLE "LR_black_phrase_B05_061"
    INDEX 01 01:27:00
  TRACK 62 AUDIO
    TITLE "LR_black_phrase_B05_062"
    INDEX 01 01:28:09
  TRACK 63 AUDIO
    TITLE "LR_black_phrase_B05_063"
    INDEX 01 01:29:30
  TRACK 64 AUDIO
    TITLE "LR_black_phrase_B05_064"
    INDEX 01 01:29:69
  TRACK 65 AUDIO
    TITLE "LR_black_phrase_B05_065"
    INDEX 01 01:31:31
  TRACK 66 AUDIO
    TITLE "LR_black_phrase_B05_066"
    INDEX 01 01:32:30
  TRACK 67 AUDIO
    TITLE "LR_black_phrase_B05_067"
    INDEX 01 01:33:69
  TRACK 68 AUDIO
    TITLE "LR_black_phrase_B05_068"
    INDEX 01 01:34:35
  TRACK 69 AUDIO
    TITLE "LR_black_phrase_B05_069"
    INDEX 01 01:36:51
  TRACK 70 AUDIO
    TITLE "LR_black_phrase_B05_070"
    INDEX 01 01:37:04
  TRACK 71 AUDIO
    TITLE "LR_black_phrase_B05_071"
    INDEX 01 01:39:22
  TRACK 72 AUDIO
    TITLE "LR_black_phrase_B05_072"
    INDEX 01 01:40:24
  TRACK 73 AUDIO
    TITLE "LR_black_phrase_B05_073"
    INDEX 01 01:41:33
  TRACK 74 AUDIO
    TITLE "LR_black_phrase_B05_074"
    INDEX 01 01:41:72
  TRACK 75 AUDIO
    TITLE "LR_black_phrase_B05_075"
    INDEX 01 01:44:57
  TRACK 76 AUDIO
    TITLE "LR_black_phrase_B05_076"
    INDEX 01 01:45:54
  TRACK 77 AUDIO
    TITLE "LR_black_phrase_B05_077"
    INDEX 01 01:47:59
  TRACK 78 AUDIO
    TITLE "LR_black_phrase_B05_078"
    INDEX 01 01:48:25
  TRACK 79 AUDIO
    TITLE "LR_black_phrase_B05_079"
    INDEX 01 01:50:52
  TRACK 80 AUDIO
    TITLE "LR_black_phrase_B05_080"
    INDEX 01 01:51:06
  TRACK 81 AUDIO
    TITLE "LR_black_phrase_B05_081"
    INDEX 01 01:53:34
  TRACK 82 AUDIO
    TITLE "LR_black_phrase_B05_082"
    INDEX 01 01:54:40
  TRACK 83 AUDIO
    TITLE "LR_black_phrase_B05_083"
    INDEX 01 01:55:57
  TRACK 84 AUDIO
    TITLE "LR_black_phrase_B05_084"
    INDEX 01 01:56:19
  TRACK 85 AUDIO
    TITLE "LR_black_phrase_B05_085"
    INDEX 01 01:58:67
  TRACK 86 AUDIO
    TITLE "LR_black_phrase_B05_086"
    INDEX 01 01:59:68
  TRACK 87 AUDIO
    TITLE "LR_black_phrase_B05_087"
    INDEX 01 02:02:29
  TRACK 88 AUDIO
    TITLE "LR_black_phrase_B05_088"
    INDEX 01 02:02:70
  TRACK 89 AUDIO
    TITLE "LR_black_phrase_B05_089"
    INDEX 01 02:05:57
  TRACK 90 AUDIO
    TITLE "LR_black_phrase_B05_090"
    INDEX 01 02:06:11
  TRACK 91 AUDIO
    TITLE "LR_black_phrase_B05_091"
    INDEX 01 02:09:00
  TRACK 92 AUDIO
    TITLE "LR_black_phrase_B05_092"
    INDEX 01 02:09:74
  TRACK 93 AUDIO
    TITLE "LR_black_phrase_B05_093"
    INDEX 01 02:11:30
  TRACK 94 AUDIO
    TITLE "LR_black_phrase_B05_094"
    INDEX 01 02:11:60
  TRACK 95 AUDIO
    TITLE "LR_black_phrase_B05_095"
    INDEX 01 02:14:05
  TRACK 96 AUDIO
    TITLE "LR_black_phrase_B05_096"
    INDEX 01 02:14:74
  TRACK 97 AUDIO
    TITLE "LR_black_phrase_B05_097"
    INDEX 01 02:16:57
  TRACK 98 AUDIO
    TITLE "LR_black_phrase_B05_098"
    INDEX 01 02:17:17
  TRACK 99 AUDIO
    TITLE "LR_black_phrase_B05_099"
    INDEX 01 02:19:24
  TRACK 100 AUDIO
    TITLE "LR_black_phrase_B05_100"
    INDEX 01 02:19:41
  TRACK 101 AUDIO
    TITLE "LR_black_phrase_B05_101"
    INDEX 01 02:21:48
  TRACK 102 AUDIO
    TITLE "LR_black_phrase_B05_102"
    INDEX 01 02:22:42
  TRACK 103 AUDIO
    TITLE "LR_black_phrase_B05_103"
    INDEX 01 02:23:73
  TRACK 104 AUDIO
    TITLE "LR_black_phrase_B05_104"
    INDEX 01 02:24:33
  TRACK 105 AUDIO
    TITLE "LR_black_phrase_B05_105"
    INDEX 01 02:26:02
  TRACK 106 AUDIO
    TITLE "LR_black_phrase_B05_106"
    INDEX 01 02:27:00
  TRACK 107 AUDIO
    TITLE "LR_black_phrase_B05_107"
    INDEX 01 02:29:48
  TRACK 108 AUDIO
    TITLE "LR_black_phrase_B05_108"
    INDEX 01 02:30:08
  TRACK 109 AUDIO
    TITLE "LR_black_phrase_B05_109"
    INDEX 01 02:33:22
  TRACK 110 AUDIO
    TITLE "LR_black_phrase_B05_110"
    INDEX 01 02:33:45
  TRACK 111 AUDIO
    TITLE "LR_black_phrase_B05_111"
    INDEX 01 02:36:61
  TRACK 112 AUDIO
    TITLE "LR_black_phrase_B05_112"
    INDEX 01 02:37:57
  TRACK 113 AUDIO
    TITLE "LR_black_phrase_B05_113"
    INDEX 01 02:39:09
  TRACK 114 AUDIO
    TITLE "LR_black_phrase_B05_114"
    INDEX 01 02:39:42
  TRACK 115 AUDIO
    TITLE "LR_black_phrase_B05_115"
    INDEX 01 02:40:53
  TRACK 116 AUDIO
    TITLE "LR_black_phrase_B05_116"
    INDEX 01 02:41:55
  TRACK 117 AUDIO
    TITLE "LR_black_phrase_B05_117"
    INDEX 01 02:43:24
  TRACK 118 AUDIO
    TITLE "LR_black_phrase_B05_118"
    INDEX 01 02:43:60
  TRACK 119 AUDIO
    TITLE "LR_black_phrase_B05_119"
    INDEX 01 02:46:07
  TRACK 120 AUDIO
    TITLE "LR_black_phrase_B05_120"
    INDEX 01 02:46:27
  TRACK 121 AUDIO
    TITLE "LR_black_phrase_B05_121"
    INDEX 01 02:48:51
  TRACK 122 AUDIO
    TITLE "LR_black_phrase_B05_122"
    INDEX 01 02:49:50
  TRACK 123 AUDIO
    TITLE "LR_black_phrase_B05_123"
    INDEX 01 02:50:71
  TRACK 124 AUDIO
    TITLE "LR_black_phrase_B05_124"
    INDEX 01 02:51:36
  TRACK 125 AUDIO
    TITLE "LR_black_phrase_B05_125"
    INDEX 01 02:53:29
  TRACK 126 AUDIO
    TITLE "LR_black_phrase_B05_126"
    INDEX 01 02:54:30
  TRACK 127 AUDIO
    TITLE "LR_black_phrase_B05_127"
    INDEX 01 02:57:22
  TRACK 128 AUDIO
    TITLE "LR_black_phrase_B05_128"
    INDEX 01 02:57:60
  TRACK 129 AUDIO
    TITLE "LR_black_phrase_B05_129"
    INDEX 01 03:01:07
  TRACK 130 AUDIO
    TITLE "LR_black_phrase_B05_130"
    INDEX 01 03:01:34
  TRACK 131 AUDIO
    TITLE "LR_black_phrase_B05_131"
    INDEX 01 03:04:56
  TRACK 132 AUDIO
    TITLE "LR_black_phrase_B05_132"
    INDEX 01 03:05:59
  TRACK 133 AUDIO
    TITLE "LR_black_phrase_B05_133"
    INDEX 01 03:07:19
  TRACK 134 AUDIO
    TITLE "LR_black_phrase_B05_134"
    INDEX 01 03:07:66
  TRACK 135 AUDIO
    TITLE "LR_black_phrase_B05_135"
    INDEX 01 03:09:20
  TRACK 136 AUDIO
    TITLE "LR_black_phrase_B05_136"
    INDEX 01 03:10:21
  TRACK 137 AUDIO
    TITLE "LR_black_phrase_B05_137"
    INDEX 01 03:12:55
  TRACK 138 AUDIO
    TITLE "LR_black_phrase_B05_138"
    INDEX 01 03:13:20
  TRACK 139 AUDIO
    TITLE "LR_black_phrase_B05_139"
    INDEX 01 03:15:71
  TRACK 140 AUDIO
    TITLE "LR_black_phrase_B05_140"
    INDEX 01 03:16:26
  TRACK 141 AUDIO
    TITLE "LR_black_phrase_B05_141"
    INDEX 01 03:19:01
  TRACK 142 AUDIO
    TITLE "LR_black_phrase_B05_142"
    INDEX 01 03:20:04
  TRACK 143 AUDIO
    TITLE "LR_black_phrase_B05_143"
    INDEX 01 03:21:43
  TRACK 144 AUDIO
    TITLE "LR_black_phrase_B05_144"
    INDEX 01 03:22:05
  TRACK 145 AUDIO
    TITLE "LR_black_phrase_B05_145"
    INDEX 01 03:23:34
  TRACK 146 AUDIO
    TITLE "LR_black_phrase_B05_146"
    INDEX 01 03:24:31
  TRACK 147 AUDIO
    TITLE "LR_black_phrase_B05_147"
    INDEX 01 03:26:59
  TRACK 148 AUDIO
    TITLE "LR_black_phrase_B05_148"
    INDEX 01 03:27:22
  TRACK 149 AUDIO
    TITLE "LR_black_phrase_B05_149"
    INDEX 01 03:30:00
  TRACK 150 AUDIO
    TITLE "LR_black_phrase_B05_150"
    INDEX 01 03:30:30
  TRACK 151 AUDIO
    TITLE "LR_black_phrase_B05_151"
    INDEX 01 03:33:09
  TRACK 152 AUDIO
    TITLE "LR_black_phrase_B05_152"
    INDEX 01 03:34:06
  TRACK 153 AUDIO
    TITLE "LR_black_phrase_B05_153"
    INDEX 01 03:35:21
  TRACK 154 AUDIO
    TITLE "LR_black_phrase_B05_154"
    INDEX 01 03:35:54
  TRACK 155 AUDIO
    TITLE "LR_black_phrase_B05_155"
    INDEX 01 03:39:05
  TRACK 156 AUDIO
    TITLE "LR_black_phrase_B05_156"
    INDEX 01 03:40:07
  TRACK 157 AUDIO
    TITLE "LR_black_phrase_B05_157"
    INDEX 01 03:41:53
  TRACK 158 AUDIO
    TITLE "LR_black_phrase_B05_158"
    INDEX 01 03:42:11
  TRACK 159 AUDIO
    TITLE "LR_black_phrase_B05_159"
    INDEX 01 03:44:22
  TRACK 160 AUDIO
    TITLE "LR_black_phrase_B05_160"
    INDEX 01 03:44:42
  TRACK 161 AUDIO
    TITLE "LR_black_phrase_B05_161"
    INDEX 01 03:46:52
  TRACK 162 AUDIO
    TITLE "LR_black_phrase_B05_162"
    INDEX 01 03:47:46
  TRACK 163 AUDIO
    TITLE "LR_black_phrase_B05_163"
    INDEX 01 03:48:51
  TRACK 164 AUDIO
    TITLE "LR_black_phrase_B05_164"
    INDEX 01 03:49:15
  TRACK 165 AUDIO
    TITLE "LR_black_phrase_B05_165"
    INDEX 01 03:51:20
  TRACK 166 AUDIO
    TITLE "LR_black_phrase_B05_166"
    INDEX 01 03:52:20
  TRACK 167 AUDIO
    TITLE "LR_black_phrase_B05_167"
    INDEX 01 03:54:62
  TRACK 168 AUDIO
    TITLE "LR_black_phrase_B05_168"
    INDEX 01 03:55:20
  TRACK 169 AUDIO
    TITLE "LR_black_phrase_B05_169"
    INDEX 01 03:57:38
  TRACK 170 AUDIO
    TITLE "LR_black_phrase_B05_170"
    INDEX 01 03:57:58
  TRACK 171 AUDIO
    TITLE "LR_black_phrase_B05_171"
    INDEX 01 04:00:01
  TRACK 172 AUDIO
    TITLE "LR_black_phrase_B05_172"
    INDEX 01 04:00:70
  TRACK 173 AUDIO
    TITLE "LR_black_phrase_B05_173"
    INDEX 01 04:02:18
  TRACK 174 AUDIO
    TITLE "LR_black_phrase_B05_174"
    INDEX 01 04:02:55
  TRACK 175 AUDIO
    TITLE "LR_black_phrase_B05_175"
    INDEX 01 04:04:72
  TRACK 176 AUDIO
    TITLE "LR_black_phrase_B05_176"
    INDEX 01 04:05:69
  TRACK 177 AUDIO
    TITLE "LR_black_phrase_B05_177"
    INDEX 01 04:08:09
  TRACK 178 AUDIO
    TITLE "LR_black_phrase_B05_178"
    INDEX 01 04:08:42
  TRACK 179 AUDIO
    TITLE "LR_black_phrase_B05_179"
    INDEX 01 04:11:03
  TRACK 180 AUDIO
    TITLE "LR_black_phrase_B05_180"
    INDEX 01 04:11:23
  TRACK 181 AUDIO
    TITLE "LR_black_phrase_B05_181"
    INDEX 01 04:13:59
  TRACK 182 AUDIO
    TITLE "LR_black_phrase_B05_182"
    INDEX 01 04:14:56
  TRACK 183 AUDIO
    TITLE "LR_black_phrase_B05_183"
    INDEX 01 04:16:01
  TRACK 184 AUDIO
    TITLE "LR_black_phrase_B05_184"
    INDEX 01 04:16:40
  TRACK 185 AUDIO
    TITLE "LR_black_phrase_B05_185"
    INDEX 01 04:18:37
  TRACK 186 AUDIO
    TITLE "LR_black_phrase_B05_186"
    INDEX 01 04:19:36
  TRACK 187 AUDIO
    TITLE "LR_black_phrase_B05_187"
    INDEX 01 04:24:00
  TRACK 188 AUDIO
    TITLE "LR_black_phrase_B05_188"
    INDEX 01 04:24:39
  TRACK 189 AUDIO
    TITLE "LR_black_phrase_B05_189"
    INDEX 01 04:28:13
  TRACK 190 AUDIO
    TITLE "LR_black_phrase_B05_190"
    INDEX 01 04:28:43
  TRACK 191 AUDIO
    TITLE "LR_black_phrase_B05_191"
    INDEX 01 04:32:15
  TRACK 192 AUDIO
    TITLE "LR_black_phrase_B05_192"
    INDEX 01 04:33:19
  TRACK 193 AUDIO
    TITLE "LR_black_phrase_B05_193"
    INDEX 01 04:34:42
  TRACK 194 AUDIO
    TITLE "LR_black_phrase_B05_194"
    INDEX 01 04:35:08
  TRACK 195 AUDIO
    TITLE "LR_black_phrase_B05_195"
    INDEX 01 04:37:14
  TRACK 196 AUDIO
    TITLE "LR_black_phrase_B05_196"
    INDEX 01 04:38:14
  TRACK 197 AUDIO
    TITLE "LR_black_phrase_B05_197"
    INDEX 01 04:40:36
  TRACK 198 AUDIO
    TITLE "LR_black_phrase_B05_198"
    INDEX 01 04:41:00
  TRACK 199 AUDIO
    TITLE "LR_black_phrase_B05_199"
    INDEX 01 04:43:66
  TRACK 200 AUDIO
    TITLE "LR_black_phrase_B05_200"
    INDEX 01 04:44:22
  TRACK 201 AUDIO
    TITLE "LR_black_phrase_B05_201"
    INDEX 01 04:47:15
  TRACK 202 AUDIO
    TITLE "LR_black_phrase_B05_202"
    INDEX 01 04:48:20
  TRACK 203 AUDIO
    TITLE "LR_black_phrase_B05_203"
    INDEX 01 04:49:23
  TRACK 204 AUDIO
    TITLE "LR_black_phrase_B05_204"
    INDEX 01 04:49:63
  TRACK 205 AUDIO
    TITLE "LR_black_phrase_B05_205"
    INDEX 01 04:51:28
  TRACK 206 AUDIO
    TITLE "LR_black_phrase_B05_206"
    INDEX 01 04:52:28
  TRACK 207 AUDIO
    TITLE "LR_black_phrase_B05_207"
    INDEX 01 04:54:27
  TRACK 208 AUDIO
    TITLE "LR_black_phrase_B05_208"
    INDEX 01 04:54:64
  TRACK 209 AUDIO
    TITLE "LR_black_phrase_B05_209"
    INDEX 01 04:57:19
  TRACK 210 AUDIO
    TITLE "LR_black_phrase_B05_210"
    INDEX 01 04:57:50
  TRACK 211 AUDIO
    TITLE "LR_black_phrase_B05_211"
    INDEX 01 05:00:04
  TRACK 212 AUDIO
    TITLE "LR_black_phrase_B05_212"
    INDEX 01 05:01:07
  TRACK 213 AUDIO
    TITLE "LR_black_phrase_B05_213"
    INDEX 01 05:02:10
  TRACK 214 AUDIO
    TITLE "LR_black_phrase_B05_214"
    INDEX 01 05:02:44
  TRACK 215 AUDIO
    TITLE "LR_black_phrase_B05_215"
    INDEX 01 05:03:53
  TRACK 216 AUDIO
    TITLE "LR_black_phrase_B05_216"
    INDEX 01 05:04:54
  TRACK 217 AUDIO
    TITLE "LR_black_phrase_B05_217"
    INDEX 01 05:06:65
  TRACK 218 AUDIO
    TITLE "LR_black_phrase_B05_218"
    INDEX 01 05:07:25
  TRACK 219 AUDIO
    TITLE "LR_black_phrase_B05_219"
    INDEX 01 05:09:44
  TRACK 220 AUDIO
    TITLE "LR_black_phrase_B05_220"
    INDEX 01 05:09:61
  TRACK 221 AUDIO
    TITLE "LR_black_phrase_B05_221"
    INDEX 01 05:12:05
  TRACK 222 AUDIO
    TITLE "LR_black_phrase_B05_222"
    INDEX 01 05:13:00
  TRACK 223 AUDIO
    TITLE "LR_black_phrase_B05_223"
    INDEX 01 05:14:18
  TRACK 224 AUDIO
    TITLE "LR_black_phrase_B05_224"
    INDEX 01 05:14:63
  TRACK 225 AUDIO
    TITLE "LR_black_phrase_B05_225"
    INDEX 01 05:17:30
  TRACK 226 AUDIO
    TITLE "LR_black_phrase_B05_226"
    INDEX 01 05:18:29
  TRACK 227 AUDIO
    TITLE "LR_black_phrase_B05_227"
    INDEX 01 05:20:42
  TRACK 228 AUDIO
    TITLE "LR_black_phrase_B05_228"
    INDEX 01 05:21:00
  TRACK 229 AUDIO
    TITLE "LR_black_phrase_B05_229"
    INDEX 01 05:23:11
  TRACK 230 AUDIO
    TITLE "LR_black_phrase_B05_230"
    INDEX 01 05:23:38
  TRACK 231 AUDIO
    TITLE "LR_black_phrase_B05_231"
    INDEX 01 05:25:49
  TRACK 232 AUDIO
    TITLE "LR_black_phrase_B05_232"
    INDEX 01 05:26:50
  TRACK 233 AUDIO
    TITLE "LR_black_phrase_B05_233"
    INDEX 01 05:27:71
  TRACK 234 AUDIO
    TITLE "LR_black_phrase_B05_234"
    INDEX 01 05:28:31
  TRACK 235 AUDIO
    TITLE "LR_black_phrase_B05_235"
    INDEX 01 05:29:23
  TRACK 236 AUDIO
    TITLE "LR_black_phrase_B05_236"
    INDEX 01 05:30:22
  TRACK 237 AUDIO
    TITLE "LR_black_phrase_B05_237"
    INDEX 01 05:31:67
  TRACK 238 AUDIO
    TITLE "LR_black_phrase_B05_238"
    INDEX 01 05:32:27
  TRACK 239 AUDIO
    TITLE "LR_black_phrase_B05_239"
    INDEX 01 05:34:36
  TRACK 240 AUDIO
    TITLE "LR_black_phrase_B05_240"
    INDEX 01 05:34:61
  TRACK 241 AUDIO
    TITLE "LR_black_phrase_B05_241"
    INDEX 01 05:36:72
  TRACK 242 AUDIO
    TITLE "LR_black_phrase_B05_242"
    INDEX 01 05:38:02
  TRACK 243 AUDIO
    TITLE "LR_black_phrase_B05_243"
    INDEX 01 05:39:15
  TRACK 244 AUDIO
    TITLE "LR_black_phrase_B05_244"
    INDEX 01 05:39:57
  TRACK 245 AUDIO
    TITLE "LR_black_phrase_B05_245"
    INDEX 01 05:43:31
  TRACK 246 AUDIO
    TITLE "LR_black_phrase_B05_246"
    INDEX 01 05:44:30
  TRACK 247 AUDIO
    TITLE "LR_black_phrase_B05_247"
    INDEX 01 05:46:39
  TRACK 248 AUDIO
    TITLE "LR_black_phrase_B05_248"
    INDEX 01 05:47:05
  TRACK 249 AUDIO
    TITLE "LR_black_phrase_B05_249"
    INDEX 01 05:49:37
  TRACK 250 AUDIO
    TITLE "LR_black_phrase_B05_250"
    INDEX 01 05:49:67
  TRACK 251 AUDIO
    TITLE "LR_black_phrase_B05_251"
    INDEX 01 05:52:24
  TRACK 252 AUDIO
    TITLE "LR_black_phrase_B05_252"
    INDEX 01 05:53:29
  TRACK 253 AUDIO
    TITLE "LR_black_phrase_B05_253"
    INDEX 01 05:54:39
  TRACK 254 AUDIO
    TITLE "LR_black_phrase_B05_254"
    INDEX 01 05:55:03
  TRACK 255 AUDIO
    TITLE "LR_black_phrase_B05_255"
    INDEX 01 05:56:26
  TRACK 256 AUDIO
    TITLE "LR_black_phrase_B05_256"
    INDEX 01 05:57:25
  TRACK 257 AUDIO
    TITLE "LR_black_phrase_B05_257"
    INDEX 01 05:59:08
  TRACK 258 AUDIO
    TITLE "LR_black_phrase_B05_258"
    INDEX 01 05:59:50
  TRACK 259 AUDIO
    TITLE "LR_black_phrase_B05_259"
    INDEX 01 06:01:39
  TRACK 260 AUDIO
    TITLE "LR_black_phrase_B05_260"
    INDEX 01 06:01:68
  TRACK 261 AUDIO
    TITLE "LR_black_phrase_B05_261"
    INDEX 01 06:03:59
  TRACK 262 AUDIO
    TITLE "LR_black_phrase_B05_262"
    INDEX 01 06:04:62
  TRACK 263 AUDIO
    TITLE "LR_black_phrase_B05_263"
    INDEX 01 06:06:14
  TRACK 264 AUDIO
    TITLE "LR_black_phrase_B05_264"
    INDEX 01 06:06:55
  TRACK 265 AUDIO
    TITLE "LR_black_phrase_B05_265"
    INDEX 01 06:08:17
  TRACK 266 AUDIO
    TITLE "LR_black_phrase_B05_266"
    INDEX 01 06:09:17
  TRACK 267 AUDIO
    TITLE "LR_black_phrase_B05_267"
    INDEX 01 06:12:21
  TRACK 268 AUDIO
    TITLE "LR_black_phrase_B05_268"
    INDEX 01 06:12:62
  TRACK 269 AUDIO
    TITLE "LR_black_phrase_B05_269"
    INDEX 01 06:15:62
  TRACK 270 AUDIO
    TITLE "LR_black_phrase_B05_270"
    INDEX 01 06:16:19
  TRACK 271 AUDIO
    TITLE "LR_black_phrase_B05_271"
    INDEX 01 06:19:21
  TRACK 272 AUDIO
    TITLE "LR_black_phrase_B05_272"
    INDEX 01 06:20:20
  TRACK 273 AUDIO
    TITLE "LR_black_phrase_B05_273"
    INDEX 01 06:21:33
  TRACK 274 AUDIO
    TITLE "LR_black_phrase_B05_274"
    INDEX 01 06:21:69
  TRACK 275 AUDIO
    TITLE "LR_black_phrase_B05_275"
    INDEX 01 06:24:02
  TRACK 276 AUDIO
    TITLE "LR_black_phrase_B05_276"
    INDEX 01 06:25:02
  TRACK 277 AUDIO
    TITLE "LR_black_phrase_B05_277"
    INDEX 01 06:27:16
  TRACK 278 AUDIO
    TITLE "LR_black_phrase_B05_278"
    INDEX 01 06:27:50
  TRACK 279 AUDIO
    TITLE "LR_black_phrase_B05_279"
    INDEX 01 06:29:64
  TRACK 280 AUDIO
    TITLE "LR_black_phrase_B05_280"
    INDEX 01 06:30:09
  TRACK 281 AUDIO
    TITLE "LR_black_phrase_B05_281"
    INDEX 01 06:32:24
  TRACK 282 AUDIO
    TITLE "LR_black_phrase_B05_282"
    INDEX 01 06:33:19
  TRACK 283 AUDIO
    TITLE "LR_black_phrase_B05_283"
    INDEX 01 06:34:42
  TRACK 284 AUDIO
    TITLE "LR_black_phrase_B05_284"
    INDEX 01 06:35:04
  TRACK 285 AUDIO
    TITLE "LR_black_phrase_B05_285"
    INDEX 01 06:37:58
  TRACK 286 AUDIO
    TITLE "LR_black_phrase_B05_286"
    INDEX 01 06:38:59
  TRACK 287 AUDIO
    TITLE "LR_black_phrase_B05_287"
    INDEX 01 06:41:15
  TRACK 288 AUDIO
    TITLE "LR_black_phrase_B05_288"
    INDEX 01 06:41:50
  TRACK 289 AUDIO
    TITLE "LR_black_phrase_B05_289"
    INDEX 01 06:43:49
  TRACK 290 AUDIO
    TITLE "LR_black_phrase_B05_290"
    INDEX 01 06:43:70
  TRACK 291 AUDIO
    TITLE "LR_black_phrase_B05_291"
    INDEX 01 06:45:69
  TRACK 292 AUDIO
    TITLE "LR_black_phrase_B05_292"
    INDEX 01 06:46:65
  TRACK 293 AUDIO
    TITLE "LR_black_phrase_B05_293"
    INDEX 01 06:48:03
  TRACK 294 AUDIO
    TITLE "LR_black_phrase_B05_294"
    INDEX 01 06:48:40
  TRACK 295 AUDIO
    TITLE "LR_black_phrase_B05_295"
    INDEX 01 06:50:74
  TRACK 296 AUDIO
    TITLE "LR_black_phrase_B05_296"
    INDEX 01 06:51:74
  TRACK 297 AUDIO
    TITLE "LR_black_phrase_B05_297"
    INDEX 01 06:53:39
  TRACK 298 AUDIO
    TITLE "LR_black_phrase_B05_298"
    INDEX 01 06:53:73
  TRACK 299 AUDIO
    TITLE "LR_black_phrase_B05_299"
    INDEX 01 06:55:50
  TRACK 300 AUDIO
    TITLE "LR_black_phrase_B05_300"
    INDEX 01 06:55:70
  TRACK 301 AUDIO
    TITLE "LR_black_phrase_B05_301"
    INDEX 01 06:57:47
